<?xml version="1.0" encoding="utf-8"?>
<!-- Generator: Adobe Illustrator 16.0.0, SVG Export Plug-In . SVG Version: 6.00 Build 0)  -->
<!DOCTYPE svg PUBLIC "-//W3C//DTD SVG 1.1//EN" "http://www.w3.org/Graphics/SVG/1.1/DTD/svg11.dtd">
<svg version="1.1" id="Layer_1" xmlns="http://www.w3.org/2000/svg" xmlns:xlink="http://www.w3.org/1999/xlink" x="0px" y="0px"
	 width="100px" height="100px" viewBox="0 0 100 100" enable-background="new 0 0 100 100" xml:space="preserve">
<g>
	<path fill="#FFFFFF" d="M69,1H31c-5.5,0-10,4.5-10,10V89c0,5.5,4.5,10,10,10h38c5.5,0,10-4.5,10-10V11C79,5.5,74.5,1,69,1z
		 M50.001,95c-3.865,0-7-2.237-7-5c0-2.762,3.135-5,7-5C53.865,85,57,87.239,57,90C57,92.763,53.865,95,50.001,95z M71,80H29V14h42
		V80z"/>
</g>
</svg>
